<?xml version="1.0" encoding="utf-8"?>
<!-- Generator: Adobe Illustrator 19.2.1, SVG Export Plug-In . SVG Version: 6.00 Build 0)  -->
<!DOCTYPE svg PUBLIC "-//W3C//DTD SVG 1.1//EN" "http://www.w3.org/Graphics/SVG/1.1/DTD/svg11.dtd">
<svg version="1.1" id="Layer_1" xmlns="http://www.w3.org/2000/svg" xmlns:xlink="http://www.w3.org/1999/xlink" x="0px" y="0px"
	 viewBox="0 0 100 100" style="enable-background:new 0 0 100 100;" xml:space="preserve">
<style type="text/css">
	.st0{fill:#FFFFFF;}
</style>
<path class="st0" d="M88.4,31.3c3.9,0,6.7-2.8,6.7-6.6s-2.8-6.8-6.7-6.8H11.7c-3.8,0-6.8,3-6.8,6.8s3,6.6,6.8,6.6
	C11.7,31.3,88.4,31.3,88.4,31.3z M11.7,68.7c-3.8,0-6.8,3-6.8,6.7s3,6.8,6.8,6.8h76.8c3.9,0,6.7-3.1,6.7-6.8c0-3.7-2.8-6.7-6.7-6.7
	H11.7z M11.7,43.2c-3.8,0-6.8,3-6.8,6.8s3,6.8,6.8,6.8h76.8c3.9,0,6.7-3,6.7-6.8s-2.8-6.8-6.7-6.8H11.7z"/>
</svg>
