<?xml version="1.0" encoding="utf-8"?>
<!-- Generator: Adobe Illustrator 19.2.1, SVG Export Plug-In . SVG Version: 6.00 Build 0)  -->
<!DOCTYPE svg PUBLIC "-//W3C//DTD SVG 1.1//EN" "http://www.w3.org/Graphics/SVG/1.1/DTD/svg11.dtd">
<svg version="1.1" id="Layer_1" xmlns="http://www.w3.org/2000/svg" xmlns:xlink="http://www.w3.org/1999/xlink" x="0px" y="0px"
	 viewBox="0 0 32 32" style="enable-background:new 0 0 32 32;" xml:space="preserve">
<style type="text/css">
	.st0{fill:#FFFFFF;}
</style>
<path class="st0" d="M29.3,25.7l-7.1-7.1c1-1.6,1.5-3.4,1.5-5.4c0-5.8-4.7-10.5-10.5-10.5C7.4,2.7,2.7,7.4,2.7,13.2
	c0,5.8,4.7,10.5,10.5,10.5c2,0,3.8-0.6,5.4-1.5l7.1,7.1L29.3,25.7z M6.7,13.2c0-3.6,2.9-6.5,6.5-6.5c3.6,0,6.5,2.9,6.5,6.5
	c0,3.6-2.9,6.5-6.5,6.5C9.6,19.7,6.7,16.8,6.7,13.2z"/>
</svg>
