<?xml version="1.0" encoding="utf-8"?>
<!-- Generator: Adobe Illustrator 20.0.0, SVG Export Plug-In . SVG Version: 6.00 Build 0)  -->
<!DOCTYPE svg PUBLIC "-//W3C//DTD SVG 1.1//EN" "http://www.w3.org/Graphics/SVG/1.1/DTD/svg11.dtd">
<svg version="1.1" id="Layer_1" xmlns="http://www.w3.org/2000/svg" xmlns:xlink="http://www.w3.org/1999/xlink" x="0px" y="0px"
	 width="41px" height="12px" viewBox="0 0 41 12" style="enable-background:new 0 0 41 12;" xml:space="preserve">
<style type="text/css">
	.st0{fill:#FFFFFF;}
</style>
<path class="st0" d="M36.02,0.1v0.26c2.43,0.38,2.17,0.95,0.8,4.5l-1.88,4.89l-2.55-6.67c-0.42-1.09-1.15-2.47,1.1-2.71V0.1l-13.8,0
	v0.25c1.8,0.34,2.22,0.81,2.23,2.43l0.08,6.19L14.11,0.1H8.44v0.25c2.23,0.22,2.39,1.2,2.39,3.36v1.78c0,2.07,0.34,5.56-3.11,5.56
	c-4.37,0-3.86-4.38-3.86-4.7V2.88c0-1.87,0.03-2.21,2.12-2.53V0.1H0.48v0.25c1.91,0.27,1.93,0.78,1.98,2.53v3.8
	c0,1.36-0.51,5.16,4.44,5.16c3.54,0,4.42-2.22,4.47-4.41l0.1-3.71c0.06-2.24-0.28-3.36,1.17-3.36c1.44,0,1.14,1.14,1.14,2.83v2.54
	c0,3.85,0.08,5.41-2.07,5.65v0.25h4.77v-0.25c-2.31-0.49-2.22-1.36-2.22-5.56V2.69c2.7,3.09,5.54,5.74,8.09,8.95l0.21-0.05
	c-0.08-3.7,0.06-7.46,0.06-9.34c0-1.16,0.19-1.9,1.2-1.9c1.1,0,1.02,0.78,1.07,2.52v5.97c-0.05,1.75-0.06,2.26-1.98,2.53v0.25h7.87
	l0.91-3.16l-0.21-0.1c-1.23,2.17-1.63,2.97-4.05,2.78l-0.9-0.15c-0.24-0.81-0.24-1.71-0.24-2.56V2.88c0-1.75,0.27-2.53,1.85-2.53
	c1.58,0,2.08,1.29,2.56,2.55l3.61,8.74h0.32l2.96-7.27c0.99-2.51,1.45-3.87,2.95-4.01V0.1H36.02z"/>
</svg>
