<?xml version="1.0" encoding="utf-8"?>
<!-- Generator: Adobe Illustrator 19.2.1, SVG Export Plug-In . SVG Version: 6.00 Build 0)  -->
<!DOCTYPE svg PUBLIC "-//W3C//DTD SVG 1.1//EN" "http://www.w3.org/Graphics/SVG/1.1/DTD/svg11.dtd">
<svg version="1.1" id="Layer_1" xmlns="http://www.w3.org/2000/svg" xmlns:xlink="http://www.w3.org/1999/xlink" x="0px" y="0px"
	 viewBox="0 0 295.6 87.4" style="enable-background:new 0 0 295.6 87.4;" xml:space="preserve">
<style type="text/css">
	.st0{fill:#FFFFFF;}
</style>
<path class="st0" d="M261.9,0.5v1.9c17.9,2.8,16,7,5.9,33.1l-13.9,36l-18.8-49.1c-3-8-8.5-18.2,8.1-20V0.5H141.7v1.9
	c13.3,2.5,16.3,6,16.4,17.9l0.6,45.6l-58-65.3H59v1.9C75.4,4,76.6,11.3,76.6,27.1v13.1c0,15.2,2.5,40.9-22.9,40.9
	c-32.2,0-28.4-32.2-28.4-34.6V21c0-13.7,0.2-16.2,15.6-18.6V0.5H0.4v1.9C14.5,4.4,14.6,8.1,15,21v28c0,10-3.8,37.9,32.6,37.9
	c26.1,0,32.5-16.4,32.9-32.4l0.7-27.3c0.5-16.4-2-24.7,8.6-24.7s8.4,8.4,8.4,20.8V42c0,28.3,0.6,39.8-15.3,41.6v1.9H118v-1.9
	c-17-3.6-16.3-10-16.3-40.9v-23c19.8,22.7,40.8,42.2,59.5,65.8l1.5-0.4c-0.6-27.2,0.5-54.9,0.5-68.7c0-8.6,1.4-14,8.9-14
	c8.1,0,7.5,5.8,7.9,18.6v43.9c-0.4,12.9-0.5,16.6-14.6,18.6v1.9h57.9l6.7-23.2l-1.5-0.8c-9,16-12,21.8-29.8,20.5l-6.6-1.1
	c-1.8-6-1.8-12.6-1.8-18.9V21c0-12.9,2-18.6,13.6-18.6s15.3,9.5,18.8,18.8l26.5,64.3h2.3L273.3,32C280.6,13.5,284,3.5,295,2.5v-2
	H261.9z"/>
</svg>
